<svg xmlns="http://www.w3.org/2000/svg" viewBox="0 0 512 512">
  <path fill="#4CAF50" d="M321.89 171.42C233 114 141 155.22 56 65.22c-19.8-21-8.3 235.5 98.1 332.7C231.89 468.92 352 461 376.75 464c43.77 5.21 37.4-18.07 92.93-73.6 46.3-46.32 42.22-108.13 37.75-145.8-5.76-48.45-36.62-11.76-185.54-73.18z"/>
  <path fill="#FF6347" d="M355.89 314.41c-30.11-14.37-107.8 20.5-168.16-42.7-60.5-63.2-38.55-120.7-73.73-142.29-53-32.53-18.2 63.8-18.2 63.8l-25.5 29.67s10.34 20.59 17.89 27.53c49.32 45.14 67.5 36.1 137.52 49s63.7 63.5 146 49.9c51.69-8.56 51.84-25.64 51.84-25.64l-25.5-2.29c-.01-.01-11.05 7.69-42.14-6.98z"/>
</svg>